<svg width="20" height="20" viewBox="0 0 20 20" fill="none" xmlns="http://www.w3.org/2000/svg">
  <path d="M10.0001 18.3334C8.8473 18.3334 7.76397 18.1146 6.75008 17.6771C5.73619 17.2396 4.85425 16.6459 4.10425 15.8959C3.35425 15.1459 2.7605 14.2639 2.323 13.25C1.8855 12.2361 1.66675 11.1528 1.66675 10C1.66675 8.84724 1.8855 7.76391 2.323 6.75002C2.7605 5.73613 3.35425 4.85419 4.10425 4.10419C4.85425 3.35419 5.73619 2.76044 6.75008 2.32294C7.76397 1.88544 8.8473 1.66669 10.0001 1.66669C11.1529 1.66669 12.2362 1.88544 13.2501 2.32294C14.264 2.76044 15.1459 3.35419 15.8959 4.10419C16.6459 4.85419 17.2397 5.73613 17.6772 6.75002C18.1147 7.76391 18.3334 8.84724 18.3334 10C18.3334 11.1528 18.1147 12.2361 17.6772 13.25C17.2397 14.2639 16.6459 15.1459 15.8959 15.8959C15.1459 16.6459 14.264 17.2396 13.2501 17.6771C12.2362 18.1146 11.1529 18.3334 10.0001 18.3334ZM10.0001 16.9444C10.8151 16.9444 11.5998 16.809 12.3542 16.5381C13.1088 16.2673 13.7917 15.875 14.4028 15.3611L4.63904 5.59731C4.13432 6.21759 3.74425 6.90356 3.46883 7.65523C3.19341 8.40676 3.05571 9.18835 3.05571 10C3.05571 11.9386 3.72841 13.5807 5.07383 14.9263C6.41939 16.2717 8.06147 16.9444 10.0001 16.9444ZM15.3474 14.4027C15.8427 13.7916 16.2327 13.1088 16.5174 12.3542C16.8021 11.5997 16.9445 10.815 16.9445 10C16.9445 8.06141 16.2718 6.41933 14.9263 5.07377C13.5808 3.72835 11.9387 3.05565 10.0001 3.05565C9.18842 3.05565 8.40682 3.19335 7.65529 3.46877C6.90362 3.74419 6.21765 4.13884 5.59737 4.65273L15.3474 14.4027Z" fill="#EAC278"/>
</svg>