<svg width="20" height="20" viewBox="0 0 20 20" fill="none" xmlns="http://www.w3.org/2000/svg">
  <path d="M3.88798 16.1101H4.89486L14.1657 6.85321L13.1588 5.84633L3.88798 15.1032V16.1101ZM2.49902 17.499V14.5407L14.1517 2.90883C14.2815 2.78383 14.4308 2.68661 14.5996 2.61717C14.7687 2.54772 14.9458 2.513 15.1309 2.513C15.3069 2.513 15.4805 2.54772 15.6517 2.61717C15.8231 2.68661 15.9759 2.78613 16.1101 2.91571L17.1032 3.91571C17.2421 4.05001 17.3428 4.20279 17.4053 4.37404C17.4678 4.54529 17.499 4.71661 17.499 4.888C17.499 5.06383 17.4655 5.23856 17.3984 5.41217C17.3312 5.58578 17.2328 5.73744 17.1032 5.86717L5.45736 17.499H2.49902ZM13.6588 6.35321L13.1588 5.84633L14.1657 6.85321L13.6588 6.35321Z" fill="#EAC278"/>
</svg>