<svg width="51" height="51" viewBox="0 0 51 51" fill="none" xmlns="http://www.w3.org/2000/svg">
  <path d="M25.5 44.625C20.6125 44.625 16.3536 43.0047 12.7234 39.7641C9.09323 36.5234 7.0125 32.4771 6.48125 27.625H10.8375C11.3333 31.3083 12.9714 34.3542 15.7516 36.7625C18.5318 39.1708 21.7813 40.375 25.5 40.375C29.6438 40.375 33.1589 38.9318 36.0453 36.0453C38.9318 33.1589 40.375 29.6438 40.375 25.5C40.375 21.3563 38.9318 17.8411 36.0453 14.9547C33.1589 12.0682 29.6438 10.625 25.5 10.625C23.0563 10.625 20.7719 11.1917 18.6469 12.325C16.5219 13.4583 14.7333 15.0167 13.2813 17H19.125V21.25H6.375V8.5H10.625V13.4938C12.4313 11.2271 14.6359 9.47396 17.2391 8.23438C19.8422 6.99479 22.5958 6.375 25.5 6.375C28.1563 6.375 30.6443 6.87969 32.9641 7.88906C35.2839 8.89844 37.3026 10.262 39.0203 11.9797C40.738 13.6974 42.1016 15.7161 43.1109 18.0359C44.1203 20.3557 44.625 22.8438 44.625 25.5C44.625 28.1563 44.1203 30.6443 43.1109 32.9641C42.1016 35.2839 40.738 37.3026 39.0203 39.0203C37.3026 40.738 35.2839 42.1016 32.9641 43.1109C30.6443 44.1203 28.1563 44.625 25.5 44.625ZM31.45 34.425L23.375 26.35V14.875H27.625V24.65L34.425 31.45L31.45 34.425Z" fill="#EAC278"/>
</svg>