<svg width="459" height="65" viewBox="0 0 459 65" fill="none" xmlns="http://www.w3.org/2000/svg">
<path d="M451.037 64.4611L436.429 43.9175C434.785 44.1001 433.081 44.1915 431.316 44.1915H414.15V64.4611H407.394V0.547806H431.316C439.472 0.547806 445.863 2.49564 450.49 6.3913C455.116 10.287 457.429 15.6435 457.429 22.4609C457.429 27.4523 456.15 31.6827 453.594 35.1523C451.098 38.561 447.507 41.0262 442.82 42.548L458.433 64.4611H451.037ZM431.133 38.4393C437.463 38.4393 442.303 37.0392 445.65 34.2392C448.998 31.4392 450.672 27.5131 450.672 22.4609C450.672 17.287 448.998 13.3305 445.65 10.5913C442.303 7.79131 437.463 6.3913 431.133 6.3913H414.15V38.4393H431.133Z" fill="white"/>
<path d="M369.525 65.0089C363.194 65.0089 357.473 63.6089 352.36 60.8089C347.307 58.0089 343.32 54.1437 340.399 49.2132C337.538 44.2219 336.107 38.6523 336.107 32.5045C336.107 26.3566 337.538 20.8175 340.399 15.887C343.32 10.8957 347.338 7.00003 352.451 4.20002C357.564 1.40001 363.286 0 369.616 0C374.364 0 378.747 0.791308 382.764 2.37392C386.781 3.95654 390.19 6.26959 392.99 9.31308L388.699 13.6044C383.707 8.5522 377.407 6.02611 369.799 6.02611C364.747 6.02611 360.151 7.18264 356.012 9.49569C351.873 11.8087 348.616 14.974 346.242 18.9914C343.929 23.0088 342.773 27.5132 342.773 32.5045C342.773 37.4958 343.929 42.0002 346.242 46.0176C348.616 50.035 351.873 53.2002 356.012 55.5133C360.151 57.8263 364.747 58.9828 369.799 58.9828C377.468 58.9828 383.768 56.4263 388.699 51.3132L392.99 55.6046C390.19 58.648 386.751 60.9915 382.673 62.635C378.655 64.2176 374.273 65.0089 369.525 65.0089Z" fill="white"/>
<path d="M296.954 0C304.623 0 310.619 2.28262 314.941 6.84785C319.323 11.4131 321.515 17.9262 321.515 26.3871V64.4611H314.758V26.5697C314.758 19.8131 313.084 14.7001 309.736 11.2305C306.388 7.7609 301.701 6.02611 295.675 6.02611C289.345 6.02611 284.414 7.88264 280.884 11.5957C277.353 15.2479 275.588 20.7566 275.588 28.1218V64.4611H268.832V0.547828H275.314V11.3218C279.393 3.77393 286.606 0 296.954 0Z" fill="white"/>
<path d="M221.83 0C230.108 0 236.621 2.43479 241.369 7.30438C246.177 12.1131 248.582 19.0827 248.582 28.2132V64.4611H241.917V45.6523H201.742V64.4611H195.169V28.2132C195.169 19.0827 197.542 12.1131 202.29 7.30438C207.099 2.43479 213.612 0 221.83 0ZM241.917 39.8089V27.574C241.917 20.4523 240.151 15.0957 236.621 11.5044C233.09 7.85221 228.16 6.02611 221.83 6.02611C215.499 6.02611 210.569 7.85221 207.038 11.5044C203.508 15.0957 201.742 20.4523 201.742 27.574V39.8089H241.917Z" fill="white"/>
<path d="M141.95 0.547806H148.707V58.6176H184.498V64.4611H141.95V0.547806Z" fill="white"/>
<path d="M40.2654 31.5001C44.4654 32.4131 47.6915 34.2392 49.9437 36.9784C52.2567 39.6567 53.4132 43.1262 53.4132 47.3871C53.4132 52.8654 51.3741 57.0959 47.2958 60.0785C43.2784 63.0002 37.3132 64.4611 29.4001 64.4611H0V0.547806H27.574C34.6958 0.547806 40.2045 1.97824 44.1002 4.83912C48.0567 7.70001 50.035 11.7479 50.035 16.9827C50.035 20.5131 49.1524 23.5262 47.3871 26.0218C45.6828 28.4566 43.3089 30.2827 40.2654 31.5001ZM6.75655 6.11739V29.3088H27.1175C32.2914 29.3088 36.2784 28.3349 39.0784 26.387C41.8784 24.3783 43.2784 21.487 43.2784 17.7131C43.2784 13.9392 41.8784 11.0783 39.0784 9.13045C36.2784 7.12175 32.2914 6.11739 27.1175 6.11739H6.75655ZM29.3088 58.8915C35.0306 58.8915 39.3523 57.9176 42.2741 55.9698C45.1958 54.0219 46.6567 50.9784 46.6567 46.8393C46.6567 38.8653 40.8741 34.8784 29.3088 34.8784H6.75655V58.8915H29.3088Z" fill="white"/>
<path d="M100.356 5.98535C103.573 3.48761 107.612 2 112 2C122.493 2 131 10.5066 131 21C131 27.8238 127.402 33.8058 122 37.1562V64H101V49H90V64H68V30H68.1533L95 0L100.356 5.98535Z" fill="white"/>
<circle cx="112.5" cy="20.5" r="14.5" fill="#272C3C"/>
<path d="M107.256 22.9831L110.248 24.0175L113.083 15.818C112.659 15.7719 112.238 15.7588 111.823 15.7786C111.413 15.8003 111.023 15.8637 110.653 15.9686L109.988 13.6348C110.576 13.4985 111.156 13.4129 111.728 13.3779C112.308 13.3392 112.874 13.3465 113.428 13.3996C113.99 13.4491 114.539 13.5351 115.075 13.6577C115.617 13.7821 116.146 13.9337 116.663 14.1124L116.649 14.1264L116.657 14.1293L112.919 24.9411L115.776 25.9288L114.966 28.2715L106.446 25.3258L107.256 22.9831Z" fill="white"/>
</svg>
