<svg width="185" height="30" viewBox="0 0 185 30" fill="none" xmlns="http://www.w3.org/2000/svg">
  <path d="M181.131 29.232L175.265 20.9819C174.605 21.0553 173.92 21.0919 173.211 21.0919H166.318V29.232H163.605V3.56516H173.211C176.487 3.56516 179.054 4.34738 180.911 5.91183C182.769 7.47629 183.698 9.62741 183.698 12.3652C183.698 14.3697 183.185 16.0686 182.158 17.4619C181.156 18.8308 179.714 19.8208 177.831 20.4319L184.101 29.232H181.131ZM173.138 18.7819C175.68 18.7819 177.624 18.2197 178.968 17.0952C180.313 15.9708 180.985 14.3941 180.985 12.3652C180.985 10.2874 180.313 8.69852 178.968 7.59851C177.624 6.47406 175.68 5.91183 173.138 5.91183H166.318V18.7819H173.138Z" fill="white"/>
  <path d="M148.397 29.4523C145.854 29.4523 143.557 28.8901 141.503 27.7656C139.474 26.6411 137.873 25.0889 136.7 23.1089C135.551 21.1045 134.977 18.8678 134.977 16.3989C134.977 13.93 135.551 11.7055 136.7 9.7255C137.873 7.72105 139.487 6.15659 141.54 5.03214C143.593 3.90769 145.891 3.34547 148.433 3.34547C150.34 3.34547 152.1 3.66325 153.713 4.29881C155.327 4.93436 156.696 5.86326 157.82 7.08549L156.097 8.80883C154.092 6.77993 151.562 5.76548 148.507 5.76548C146.478 5.76548 144.632 6.22993 142.97 7.15882C141.308 8.08772 140 9.35883 139.047 10.9722C138.118 12.5855 137.653 14.3944 137.653 16.3989C137.653 18.4033 138.118 20.2122 139.047 21.8256C140 23.4389 141.308 24.71 142.97 25.6389C144.632 26.5678 146.478 27.0323 148.507 27.0323C151.587 27.0323 154.117 26.0056 156.097 23.9522L157.82 25.6756C156.696 26.8978 155.314 27.8389 153.677 28.4989C152.063 29.1345 150.303 29.4523 148.397 29.4523Z" fill="white"/>
  <path d="M119.253 3.34547C122.333 3.34547 124.741 4.26214 126.476 6.09548C128.236 7.92882 129.116 10.5444 129.116 13.9422V29.2323H126.403V14.0155C126.403 11.3022 125.731 9.24883 124.386 7.85549C123.042 6.46215 121.16 5.76548 118.74 5.76548C116.197 5.76548 114.217 6.51104 112.799 8.00216C111.382 9.46883 110.673 11.6811 110.673 14.6389V29.2323H107.959V3.56547H110.563V7.89216C112.201 4.86103 115.097 3.34547 119.253 3.34547Z" fill="white"/>
  <path d="M89.0839 3.34547C92.4084 3.34547 95.0239 4.32325 96.9306 6.27882C98.8617 8.20994 99.8273 11.0088 99.8273 14.6755V29.2323H97.1506V21.6789H81.0172V29.2323H78.3772V14.6755C78.3772 11.0088 79.3305 8.20994 81.2372 6.27882C83.1683 4.32325 85.7839 3.34547 89.0839 3.34547ZM97.1506 19.3322V14.4189C97.1506 11.5588 96.4417 9.40772 95.0239 7.96549C93.6062 6.49882 91.6261 5.76548 89.0839 5.76548C86.5417 5.76548 84.5617 6.49882 83.1439 7.96549C81.7261 9.40772 81.0172 11.5588 81.0172 14.4189V19.3322H97.1506Z" fill="white"/>
  <path d="M57.0054 3.56516H59.7188V26.8853H74.0922V29.232H57.0054V3.56516Z" fill="white"/>
  <path d="M38.1303 3.34547C41.4547 3.34547 44.0703 4.32325 45.977 6.27882C47.9081 8.20994 48.8737 11.0088 48.8737 14.6755V29.2323H46.197V21.6789H30.0636V29.2323H27.4236V14.6755C27.4236 11.0088 28.3769 8.20994 30.2836 6.27882C32.2147 4.32325 34.8303 3.34547 38.1303 3.34547ZM46.197 19.3322V14.4189C46.197 11.5588 45.4881 9.40772 44.0703 7.96549C42.6525 6.49882 40.6725 5.76548 38.1303 5.76548C35.588 5.76548 33.608 6.49882 32.1902 7.96549C30.7725 9.40772 30.0636 11.5588 30.0636 14.4189V19.3322H46.197Z" fill="white"/>
  <path d="M16.1701 15.9952C17.8568 16.3619 19.1523 17.0952 20.0568 18.1952C20.9857 19.2708 21.4501 20.6641 21.4501 22.3753C21.4501 24.5753 20.6312 26.2742 18.9934 27.472C17.3801 28.6453 14.9845 29.232 11.8067 29.232H0V3.56516H11.0734C13.9334 3.56516 16.1456 4.1396 17.7101 5.2885C19.299 6.43739 20.0934 8.06296 20.0934 10.1652C20.0934 11.583 19.739 12.793 19.0301 13.7952C18.3457 14.773 17.3923 15.5063 16.1701 15.9952ZM2.71335 5.80183V15.1152H10.8901C12.9678 15.1152 14.569 14.7241 15.6934 13.9419C16.8179 13.1352 17.3801 11.9741 17.3801 10.4585C17.3801 8.94296 16.8179 7.79407 15.6934 7.01184C14.569 6.20517 12.9678 5.80183 10.8901 5.80183H2.71335ZM11.7701 26.9953C14.0679 26.9953 15.8034 26.6042 16.9768 25.8219C18.1501 25.0397 18.7368 23.8175 18.7368 22.1553C18.7368 18.953 16.4145 17.3519 11.7701 17.3519H2.71335V26.9953H11.7701Z" fill="white"/>
  <path d="M46.0251 20.3909H30.019H29.1298L30.019 8.55689L33.5759 6.73626L39.8005 5.82595L46.0251 9.4672V20.3909Z" fill="white"/>
  <path d="M40.5832 4.83037L46.7408 8.4468L47.1906 8.7099V20.9736H28.5474L29.4996 8.25079L29.5377 7.75106L29.993 7.5162L33.5116 5.70799L33.6512 5.63736L39.9648 4.71029L40.2967 4.66085L40.5832 4.83037ZM34.2407 7.3767L31.3152 8.88119L30.5461 19.1654H45.3333V9.72879L39.9103 6.54499L34.2407 7.3767Z" fill="white"/>
  <path d="M32.2761 29.1298H28.5474V20.3908H47.1906V29.1298H40.6655V23.0125H37.869H36.0047V25.6342V29.1298H32.2761Z" fill="white"/>
  <path d="M38.6147 2.9129L26.7996 15.1475L27.7084 1.1651L49.5209 2.039L48.6121 14.2736L38.6147 2.9129Z" fill="#272C3C"/>
  <path d="M27.6694 0.0345312L50.6862 0.956514L50.6197 1.86468L49.5385 16.4058L38.6327 4.0177L25.6345 17.478L26.7696 0L27.6694 0.0345312ZM27.7898 12.647L37.8676 2.21345L28.492 1.83706L27.7898 12.647ZM48.0244 11.9478L48.7159 2.64854L39.5128 2.27906L48.0244 11.9478Z" fill="#272C3C"/>
  <path d="M51.8513 13.1084C51.8513 17.1304 48.5908 20.3909 44.5688 20.3909C40.5468 20.3909 37.2864 17.1304 37.2864 13.1084C37.2864 9.08643 40.5468 5.82595 44.5688 5.82595C48.5908 5.82595 51.8513 9.08643 51.8513 13.1084Z" fill="#272C3C"/>
  <path d="M50.0307 13.1084C50.0307 10.0919 47.5853 7.64658 44.5688 7.64658C41.5523 7.64658 39.107 10.0919 39.107 13.1084C39.107 16.1249 41.5523 18.5703 44.5688 18.5703V20.3909C40.5468 20.3909 37.2864 17.1304 37.2864 13.1084C37.2864 9.08643 40.5468 5.82595 44.5688 5.82595C48.5908 5.82595 51.8513 9.08643 51.8513 13.1084C51.8513 17.1304 48.5908 20.3909 44.5688 20.3909V18.5703C47.5853 18.5703 50.0307 16.1249 50.0307 13.1084Z" fill="white"/>
  <path d="M42.5651 14.0639L43.7665 14.4793L44.905 11.1865C44.7346 11.168 44.5659 11.1627 44.399 11.1706C44.2343 11.1794 44.0778 11.2048 43.9293 11.2469L43.6623 10.3097C43.8985 10.255 44.1314 10.2206 44.3611 10.2065C44.5937 10.191 44.8213 10.1939 45.0438 10.2153C45.2693 10.2352 45.4897 10.2697 45.7051 10.3189C45.9227 10.3689 46.1353 10.4298 46.3429 10.5015L46.3371 10.5071L46.3405 10.5083L44.8393 14.8502L45.9865 15.2469L45.6612 16.1877L42.2398 15.0047L42.5651 14.0639Z" fill="white"/>
</svg>
