<svg width="61" height="61" viewBox="0 0 61 61" fill="none" xmlns="http://www.w3.org/2000/svg">
  <path d="M50.325 53.3324L33.8467 36.8541C32.5759 37.9271 31.1009 38.7674 29.4217 39.3748C27.7425 39.9819 25.9557 40.2854 24.0613 40.2854C19.4677 40.2854 15.5798 38.6932 12.3976 35.509C9.21587 32.3251 7.625 28.4668 7.625 23.9342C7.625 19.4016 9.21714 15.5431 12.4014 12.3588C15.5853 9.17454 19.4507 7.5824 23.9978 7.5824C28.5444 7.5824 32.4027 9.17454 35.5725 12.3588C38.7428 15.5431 40.328 19.4037 40.328 23.9406C40.328 25.7718 40.0315 27.5277 39.4384 29.2082C38.8453 30.8882 37.9839 32.4344 36.8542 33.8467L53.375 50.2824L50.325 53.3324ZM24.0187 36.0491C27.3725 36.0491 30.223 34.8666 32.5702 32.5015C34.9178 30.1365 36.0917 27.2807 36.0917 23.9342C36.0917 20.5877 34.9178 17.7317 32.5702 15.3663C30.223 13.0012 27.3725 11.8187 24.0187 11.8187C20.6417 11.8187 17.7711 13.0012 15.4069 15.3663C13.0432 17.7317 11.8613 20.5877 11.8613 23.9342C11.8613 27.2807 13.0432 30.1365 15.4069 32.5015C17.7711 34.8666 20.6417 36.0491 24.0187 36.0491Z" fill="#EAC278"/>
</svg>
