<svg width="61" height="61" viewBox="0 0 61 61" fill="none" xmlns="http://www.w3.org/2000/svg">
  <path d="M14.3604 44.3521C16.8597 42.5589 19.4295 41.1716 22.0699 40.1901C24.7107 39.2086 27.5207 38.7178 30.5 38.7178C33.4792 38.7178 36.2963 39.2086 38.951 40.1901C41.6058 41.1716 44.1828 42.5589 46.6821 44.3521C48.4189 42.248 49.6862 40.0522 50.4838 37.7647C51.2815 35.4772 51.6803 33.0556 51.6803 30.5C51.6803 24.5271 49.6436 19.5037 45.5702 15.4298C41.4963 11.3564 36.4729 9.31964 30.5 9.31964C24.5271 9.31964 19.5037 11.3564 15.4298 15.4298C11.3564 19.5037 9.31964 24.5271 9.31964 30.5C9.31964 33.0556 9.72546 35.4772 10.5371 37.7647C11.3492 40.0522 12.6236 42.248 14.3604 44.3521ZM30.4924 32.6178C28.0265 32.6178 25.9498 31.7717 24.2621 30.0793C22.5749 28.3866 21.7312 26.3073 21.7312 23.8415C21.7312 21.3756 22.5776 19.2991 24.2704 17.6118C25.9627 15.9242 28.0418 15.0803 30.5076 15.0803C32.9734 15.0803 35.0502 15.9267 36.7379 17.6194C38.4251 19.3122 39.2687 21.3915 39.2687 23.8573C39.2687 26.3232 38.4224 28.3997 36.7296 30.087C35.0373 31.7742 32.9582 32.6178 30.4924 32.6178ZM30.5197 55.9167C27.019 55.9167 23.7224 55.2495 20.6301 53.9151C17.5377 52.5807 14.8406 50.7628 12.5387 48.4613C10.2372 46.1594 8.41925 43.4657 7.08488 40.3801C5.7505 37.2945 5.08331 33.9973 5.08331 30.4885C5.08331 26.9802 5.7505 23.6868 7.08488 20.6085C8.41925 17.5305 10.2372 14.8406 12.5387 12.5387C14.8406 10.2372 17.5343 8.41925 20.6199 7.08488C23.7055 5.7505 27.0026 5.08331 30.5114 5.08331C34.0198 5.08331 37.3131 5.7505 40.3915 7.08488C43.4695 8.41925 46.1594 10.2372 48.4613 12.5387C50.7628 14.8406 52.5807 17.5309 53.9151 20.6097C55.2495 23.6889 55.9167 26.9791 55.9167 30.4803C55.9167 33.981 55.2495 37.2775 53.9151 40.3699C52.5807 43.4623 50.7628 46.1594 48.4613 48.4613C46.1594 50.7628 43.4691 52.5807 40.3902 53.9151C37.311 55.2495 34.0208 55.9167 30.5197 55.9167ZM30.5 51.6803C32.8015 51.6803 35.0254 51.345 37.1719 50.6745C39.3183 50.0039 41.387 48.8989 43.378 47.3595C41.387 45.9336 39.3113 44.8428 37.1509 44.0871C34.9905 43.3318 32.7735 42.9542 30.5 42.9542C28.2265 42.9542 26.0095 43.3318 23.8491 44.0871C21.6887 44.8428 19.613 45.9336 17.622 47.3595C19.613 48.8989 21.6817 50.0039 23.8281 50.6745C25.9745 51.345 28.1985 51.6803 30.5 51.6803ZM30.5 28.3821C31.8272 28.3821 32.9144 27.9585 33.7616 27.1113C34.6088 26.2641 35.0324 25.1767 35.0324 23.8491C35.0324 22.5219 34.6088 21.4347 33.7616 20.5875C32.9144 19.7403 31.8272 19.3166 30.5 19.3166C29.1728 19.3166 28.0856 19.7403 27.2384 20.5875C26.3912 21.4347 25.9676 22.5219 25.9676 23.8491C25.9676 25.1767 26.3912 26.2641 27.2384 27.1113C28.0856 27.9585 29.1728 28.3821 30.5 28.3821Z" fill="#EAC278"/>
</svg>
