<svg width="459" height="65" viewBox="0 0 459 65" fill="none" xmlns="http://www.w3.org/2000/svg">
<path d="M451.037 64.4611L436.428 43.9176C434.785 44.1002 433.081 44.1915 431.315 44.1915H414.15V64.4611H407.394V0.547852H431.315C439.472 0.547852 445.863 2.49568 450.489 6.39135C455.115 10.287 457.429 15.6436 457.429 22.461C457.429 27.4523 456.15 31.6828 453.594 35.1523C451.098 38.561 447.507 41.0263 442.82 42.548L458.433 64.4611H451.037ZM431.133 38.4393C437.463 38.4393 442.302 37.0393 445.65 34.2393C448.998 31.4393 450.672 27.5132 450.672 22.461C450.672 17.2871 448.998 13.3305 445.65 10.5914C442.302 7.79136 437.463 6.39135 431.133 6.39135H414.15V38.4393H431.133Z" fill="white"/>
<path d="M369.525 65.0089C363.194 65.0089 357.473 63.6089 352.36 60.8089C347.307 58.0089 343.321 54.1437 340.399 49.2132C337.538 44.2219 336.107 38.6523 336.107 32.5045C336.107 26.3566 337.538 20.8175 340.399 15.887C343.321 10.8957 347.338 7.00003 352.451 4.20002C357.564 1.40001 363.286 0 369.616 0C374.364 0 378.747 0.791308 382.764 2.37392C386.782 3.95654 390.19 6.26959 392.99 9.31308L388.699 13.6044C383.708 8.5522 377.408 6.02611 369.799 6.02611C364.747 6.02611 360.151 7.18264 356.012 9.49569C351.873 11.8087 348.616 14.974 346.242 18.9914C343.929 23.0088 342.773 27.5132 342.773 32.5045C342.773 37.4958 343.929 42.0002 346.242 46.0176C348.616 50.035 351.873 53.2002 356.012 55.5133C360.151 57.8263 364.747 58.9828 369.799 58.9828C377.468 58.9828 383.768 56.4263 388.699 51.3132L392.99 55.6046C390.19 58.648 386.751 60.9915 382.673 62.635C378.655 64.2176 374.273 65.0089 369.525 65.0089Z" fill="white"/>
<path d="M296.953 0C304.623 0 310.619 2.28262 314.94 6.84785C319.323 11.4131 321.514 17.9262 321.514 26.3871V64.4611H314.758V26.5697C314.758 19.8131 313.084 14.7001 309.736 11.2305C306.388 7.7609 301.701 6.02611 295.675 6.02611C289.345 6.02611 284.414 7.88264 280.884 11.5957C277.353 15.2479 275.588 20.7566 275.588 28.1218V64.4611H268.832V0.547828H275.314V11.3218C279.392 3.77393 286.606 0 296.953 0Z" fill="white"/>
<path d="M221.829 0C230.108 0 236.621 2.43479 241.369 7.30438C246.177 12.1131 248.582 19.0827 248.582 28.2132V64.4611H241.916V45.6523H201.742V64.4611H195.168V28.2132C195.168 19.0827 197.542 12.1131 202.29 7.30438C207.099 2.43479 213.612 0 221.829 0ZM241.916 39.8089V27.574C241.916 20.4523 240.151 15.0957 236.621 11.5044C233.09 7.85221 228.16 6.02611 221.829 6.02611C215.499 6.02611 210.569 7.85221 207.038 11.5044C203.508 15.0957 201.742 20.4523 201.742 27.574V39.8089H241.916Z" fill="white"/>
<path d="M141.95 0.547852H148.707V58.6176H184.498V64.4611H141.95V0.547852Z" fill="white"/>
<path d="M94.9486 0C103.227 0 109.74 2.43479 114.488 7.30438C119.296 12.1131 121.701 19.0827 121.701 28.2132V64.4611H115.036V45.6523H74.8615V64.4611H68.2876V28.2132C68.2876 19.0827 70.6615 12.1131 75.4094 7.30438C80.2181 2.43479 86.7311 0 94.9486 0ZM115.036 39.8089V27.574C115.036 20.4523 113.27 15.0957 109.74 11.5044C106.209 7.85221 101.279 6.02611 94.9486 6.02611C88.6181 6.02611 83.6877 7.85221 80.1572 11.5044C76.6268 15.0957 74.8615 20.4523 74.8615 27.574V39.8089H115.036Z" fill="white"/>
<path d="M40.2654 31.5001C44.4654 32.4132 47.6915 34.2393 49.9437 36.9784C52.2567 39.6567 53.4132 43.1263 53.4132 47.3872C53.4132 52.8654 51.3741 57.0959 47.2958 60.0785C43.2784 63.0003 37.3132 64.4611 29.4001 64.4611H0V0.547852H27.574C34.6958 0.547852 40.2045 1.97829 44.1002 4.83917C48.0567 7.70005 50.035 11.7479 50.035 16.9827C50.035 20.5131 49.1524 23.5262 47.3871 26.0219C45.6828 28.4567 43.3089 30.2828 40.2654 31.5001ZM6.75655 6.11744V29.3088H27.1175C32.2914 29.3088 36.2784 28.3349 39.0784 26.3871C41.8784 24.3784 43.2784 21.4871 43.2784 17.7131C43.2784 13.9392 41.8784 11.0783 39.0784 9.1305C36.2784 7.12179 32.2914 6.11744 27.1175 6.11744H6.75655ZM29.3088 58.8916C35.0306 58.8916 39.3523 57.9176 42.2741 55.9698C45.1958 54.022 46.6567 50.9785 46.6567 46.8393C46.6567 38.8654 40.8741 34.8784 29.3088 34.8784H6.75655V58.8916H29.3088Z" fill="white"/>
</svg>
